<svg width="24" height="24" viewBox="0 0 24 24" fill="none" xmlns="http://www.w3.org/2000/svg">
<path d="M14.1361 10.4546H13.1624C12.8732 9.33481 12.2758 8.31859 11.438 7.52139C10.6002 6.72419 9.55557 6.17798 8.42283 5.94482C7.29009 5.71166 6.11466 5.8009 5.0301 6.2024C3.94554 6.6039 2.99535 7.30157 2.28749 8.21611C1.57963 9.13066 1.14248 10.2254 1.02573 11.376C0.908975 12.5266 1.11729 13.6868 1.62701 14.7249C2.13673 15.7631 2.9274 16.6374 3.9092 17.2486C4.89099 17.8597 6.02454 18.1833 7.18103 18.1824H14.1361C15.1609 18.1824 16.1437 17.7753 16.8683 17.0507C17.5929 16.3261 18 15.3433 18 14.3185C18 13.2937 17.5929 12.3109 16.8683 11.5863C16.1437 10.8617 15.1609 10.4546 14.1361 10.4546Z" stroke="white" stroke-width="1.54557" stroke-linecap="round" stroke-linejoin="round"/>
<path d="M17.3333 8.99984C17.3333 7.15889 15.8409 5.6665 14 5.6665" stroke="white" stroke-width="1.33333" stroke-linecap="round" stroke-linejoin="round"/>
<path d="M22 8.3335L20.6667 8.3335" stroke="white" stroke-width="1.33333" stroke-linecap="round" stroke-linejoin="round"/>
<path d="M19.853 3.14697L18.9064 4.09364" stroke="white" stroke-width="1.33333" stroke-linecap="round" stroke-linejoin="round"/>
<path d="M14.6667 1L14.6667 2.33333" stroke="white" stroke-width="1.33333" stroke-linecap="round" stroke-linejoin="round"/>
</svg>
